<?xml version="1.0" encoding="utf-8"?>
<!-- Generator: Adobe Illustrator 28.0.0, SVG Export Plug-In . SVG Version: 6.00 Build 0)  -->
<svg version="1.1" id="Camada_1" xmlns="http://www.w3.org/2000/svg" xmlns:xlink="http://www.w3.org/1999/xlink" x="0px" y="0px"
	 viewBox="0 0 814 933.1" style="enable-background:new 0 0 814 933.1;" xml:space="preserve">
<style type="text/css">
	.st0{fill:#FCEE21;}
</style>
<circle class="st0" cx="407" cy="466.5" r="407"/>
<g>
	<g>
		<path d="M592.7,191.8c0,111.6-78,191.8-191.8,191.8H193.3v117.4H7.3V0h393.6C514.7,0,592.7,80.1,592.7,191.8z M406.6,191.8
			c0-34.4-22.9-34.4-41.5-34.4H193.3v68.7h171.7C383.7,226.1,406.6,226.1,406.6,191.8z"/>
	</g>
	<g>
		<path d="M494,417.8c200.4,0,304.9,70.1,312.7,228.3H616.4c-7.2-47.2-43.7-70.8-122.4-70.8c-110.2,0-128.8,46.5-128.8,99.5
			c0,53.7,19.3,100.9,128.8,100.9c78.7,0,115.2-24.3,122.4-72.3h190.4C798.9,862.2,695.1,933.1,494,933.1
			c-220.4,0-314.9-83.7-314.9-258.3C179.1,500.9,273.6,417.8,494,417.8z"/>
	</g>
</g>
</svg>
