<?xml version="1.0" encoding="utf-8"?>
<!-- Generator: Adobe Illustrator 28.0.0, SVG Export Plug-In . SVG Version: 6.00 Build 0)  -->
<svg version="1.1" id="Camada_1" xmlns="http://www.w3.org/2000/svg" xmlns:xlink="http://www.w3.org/1999/xlink" x="0px" y="0px"
	 viewBox="0 0 267 299.9" style="enable-background:new 0 0 267 299.9;" xml:space="preserve">
<style type="text/css">
	.st0{fill:#FFD125;}
</style>
<path d="M189.4,39.8c0.3,1.8,0.8,4.2,1.6,7.1c2.2,8.2,2.4,18.1,0.6,29.5c-3.1,18.8-15.1,35.8-32.7,43.7c-9.2,4.2-18.4,6.3-27.6,6.3
	c-22.9,0.1-45.9,0.1-69.2,0c-0.2,0-0.3,0.2-0.3,0.4l0,0l0,37.7c0,0.3-0.3,0.6-0.6,0.6h0l-49.9,0.1l-10.5-0.1c-0.3,0-0.6-0.3-0.6-0.6
	L0,0.7C0,0.3,0.3,0,0.6,0c42.7,0,86.4,0,131,0c23.9,0,45.8,13.3,55.4,35.2C187.7,37,188.5,38.5,189.4,39.8z M61.7,52.8l-0.1,20.6
	c0,0.4,0.3,0.7,0.7,0.7l0,0l58.7,0.2c5.6,0,10.1-4.1,10.1-9.2c0,0,0,0,0,0l0-3.4c0-5.1-4.5-9.3-10-9.3l-58.7-0.2
	C62,52.1,61.7,52.4,61.7,52.8L61.7,52.8z"/>
<path class="st0" d="M189.4,39.8c24.3,12.6,42.5,30.8,54.6,54.8c11.1,22,15.1,45.7,12,70.9c-6.4-9.3-14.2-16.5-23.5-21.6
	c-14.8-8.1-31.4-11.6-48.4-13c-16.8-1.4-34.5-1-51.1,1.2c-31.5,4.4-60.2,18.9-68.7,52c-4.8,18.6-5.2,37.4-1.2,56.4
	c0,0,0.6,2.1,1.7,6.2c0.5,1.9,0.9,4.1,1.2,6.4c-26.7-17.8-44.1-42.1-52.2-72.9c-1.1-4.3-2-9.3-2.6-15.2l49.9-0.1
	c0.3,0,0.6-0.3,0.6-0.6c0,0,0,0,0,0l0-37.7c0-0.2,0.2-0.4,0.3-0.4c0,0,0,0,0,0c23.2,0.1,46.3,0,69.2,0c9.2,0,18.4-2.1,27.6-6.3
	c17.6-8,29.7-24.9,32.7-43.7c1.9-11.4,1.7-21.3-0.6-29.5C190.1,44,189.6,41.6,189.4,39.8z"/>
<path class="st0" d="M61.7,52.8c0-0.4,0.3-0.7,0.7-0.7l0,0l58.7,0.2c5.6,0,10,4.2,10,9.3l0,3.4c0,5.1-4.5,9.2-10.1,9.2c0,0,0,0,0,0
	l-58.7-0.2c-0.4,0-0.7-0.3-0.7-0.7l0,0L61.7,52.8z"/>
<path d="M255.9,165.5c6.9,12,10.6,25,11,39.1c0,0.7-0.3,1.1-1,1.1l-22.3,0l-39.1-0.1c-0.4,0-0.8-0.3-0.8-0.7
	c-1.9-17-19.3-21.5-33.5-22.3c-10.2-0.6-19.2,0.2-27.2,2.4c-18.9,5.1-22.8,20.4-20.5,37.5c1.6,12.3,9.4,20.2,21.5,23
	c13.2,3.1,26.3,3.1,39.5,0.1c10-2.3,17.9-8.9,20-19.2c0.4-2,0.8-2.4,2.9-2.4c4.6,0.2,13.3,0.1,26-0.1l33.3,0c0.7,0,1.3,0.6,1.3,1.3
	c0,0,0,0,0,0.1c-1,22.3-9,42.9-27.3,56.3c-12.5,9.1-27.2,13.5-42.7,16.1c-12.3,2.1-26.8,2.8-43.5,2.2c-15.2-0.6-28.9-2.7-41-6.4
	c-10.2-3.1-18.9-7.6-26.1-13.3c-7.2-5.8-12.6-12.1-16.1-19c-2.1-4.2-3.6-6.8-4.4-7.8c-0.3-2.3-0.7-4.4-1.2-6.4
	c-1.1-4.1-1.7-6.2-1.7-6.2c-4-19-3.6-37.8,1.2-56.4c8.5-33.1,37.2-47.7,68.7-52c16.6-2.3,34.3-2.6,51.1-1.2c17,1.4,33.6,4.9,48.4,13
	C241.7,149,249.6,156.2,255.9,165.5z"/>
<path class="st0" d="M243.6,205.7c-3,6.4-6.8,12.5-11.2,18.1c-12.7,0.2-21.3,0.2-26,0.1c-2-0.1-2.5,0.4-2.9,2.4
	c-2.1,10.3-10,16.9-20,19.2c-13.1,3-26.3,3-39.5-0.1c-12.1-2.9-19.9-10.7-21.5-23c-2.3-17.1,1.6-32.4,20.5-37.5
	c7.9-2.1,17-2.9,27.2-2.4c14.2,0.8,31.5,5.3,33.5,22.3c0,0.4,0.4,0.7,0.8,0.7L243.6,205.7z"/>
</svg>
